<mxfile host="app.diagrams.net" modified="2024-06-11T07:23:39.999Z" agent="Mozilla/5.0 (Windows NT 10.0; Win64; x64) AppleWebKit/537.36 (KHTML, like Gecko) Chrome/94.0.4606.81 Safari/537.36" version="24.4.6" etag="JjDh6G8Vt985F5vrV4EC" type="github">
  <diagram name="Page-1" id="1FPdED-HbdeLJ-nTdipq">
    <mxGraphModel>
      <root>
        <mxCell id="0" />
        <mxCell id="1" parent="0" />
      </root>
    </mxGraphModel>
  </diagram>
</mxfile>
